<mxfile host="Electron" modified="2024-05-15T06:11:08.409Z" agent="Mozilla/5.0 (Windows NT 10.0; Win64; x64) AppleWebKit/537.36 (KHTML, like Gecko) draw.io/21.6.1 Chrome/112.0.5615.204 Electron/24.6.1 Safari/537.36" etag="wuIgI4oxQcU8vKNCVnQQ" version="21.6.1" type="device">
  <diagram name="Página-1" id="7e-4RbSeWS3_puxCsdqc">
    <mxGraphModel dx="1292" dy="753" grid="1" gridSize="10" guides="1" tooltips="1" connect="1" arrows="1" fold="1" page="1" pageScale="1" pageWidth="1169" pageHeight="827" math="0" shadow="0">
      <root>
        <mxCell id="0" />
        <mxCell id="1" parent="0" />
        <mxCell id="Q5hPIvbTVYmCrmdWsJ5R-13" value="" style="rounded=0;whiteSpace=wrap;html=1;fillColor=none;" vertex="1" parent="1">
          <mxGeometry x="660" y="100" width="420" height="280" as="geometry" />
        </mxCell>
        <mxCell id="Q5hPIvbTVYmCrmdWsJ5R-1" value="Cliente" style="shape=umlActor;verticalLabelPosition=bottom;verticalAlign=top;html=1;outlineConnect=0;" vertex="1" parent="1">
          <mxGeometry x="550" y="280" width="30" height="60" as="geometry" />
        </mxCell>
        <mxCell id="Q5hPIvbTVYmCrmdWsJ5R-2" value="Administrador" style="shape=umlActor;verticalLabelPosition=bottom;verticalAlign=top;html=1;outlineConnect=0;" vertex="1" parent="1">
          <mxGeometry x="550" y="150" width="30" height="60" as="geometry" />
        </mxCell>
        <mxCell id="Q5hPIvbTVYmCrmdWsJ5R-3" value="Añadir evento" style="ellipse;whiteSpace=wrap;html=1;" vertex="1" parent="1">
          <mxGeometry x="680" y="130" width="90" height="40" as="geometry" />
        </mxCell>
        <mxCell id="Q5hPIvbTVYmCrmdWsJ5R-4" value="Eliminar evento" style="ellipse;whiteSpace=wrap;html=1;" vertex="1" parent="1">
          <mxGeometry x="680" y="210" width="90" height="40" as="geometry" />
        </mxCell>
        <mxCell id="Q5hPIvbTVYmCrmdWsJ5R-5" value="Comprar entradas" style="ellipse;whiteSpace=wrap;html=1;" vertex="1" parent="1">
          <mxGeometry x="840" y="290" width="90" height="40" as="geometry" />
        </mxCell>
        <mxCell id="Q5hPIvbTVYmCrmdWsJ5R-6" value="Consultar eventos disponibles" style="ellipse;whiteSpace=wrap;html=1;" vertex="1" parent="1">
          <mxGeometry x="680" y="290" width="110" height="40" as="geometry" />
        </mxCell>
        <mxCell id="Q5hPIvbTVYmCrmdWsJ5R-7" value="Realizar pago" style="ellipse;whiteSpace=wrap;html=1;" vertex="1" parent="1">
          <mxGeometry x="970" y="290" width="90" height="40" as="geometry" />
        </mxCell>
        <mxCell id="Q5hPIvbTVYmCrmdWsJ5R-8" value="" style="endArrow=none;html=1;rounded=0;exitX=1;exitY=0.3333333333333333;exitDx=0;exitDy=0;exitPerimeter=0;entryX=0;entryY=0.5;entryDx=0;entryDy=0;" edge="1" parent="1" source="Q5hPIvbTVYmCrmdWsJ5R-1" target="Q5hPIvbTVYmCrmdWsJ5R-6">
          <mxGeometry width="50" height="50" relative="1" as="geometry">
            <mxPoint x="840" y="250" as="sourcePoint" />
            <mxPoint x="890" y="200" as="targetPoint" />
          </mxGeometry>
        </mxCell>
        <mxCell id="Q5hPIvbTVYmCrmdWsJ5R-9" value="" style="endArrow=none;html=1;rounded=0;exitX=1;exitY=0.3333333333333333;exitDx=0;exitDy=0;exitPerimeter=0;entryX=0;entryY=0.5;entryDx=0;entryDy=0;" edge="1" parent="1" source="Q5hPIvbTVYmCrmdWsJ5R-2" target="Q5hPIvbTVYmCrmdWsJ5R-3">
          <mxGeometry width="50" height="50" relative="1" as="geometry">
            <mxPoint x="580" y="175" as="sourcePoint" />
            <mxPoint x="680" y="185" as="targetPoint" />
          </mxGeometry>
        </mxCell>
        <mxCell id="Q5hPIvbTVYmCrmdWsJ5R-10" value="" style="endArrow=none;html=1;rounded=0;exitX=1;exitY=0.3333333333333333;exitDx=0;exitDy=0;exitPerimeter=0;entryX=0;entryY=0.5;entryDx=0;entryDy=0;" edge="1" parent="1" source="Q5hPIvbTVYmCrmdWsJ5R-2" target="Q5hPIvbTVYmCrmdWsJ5R-4">
          <mxGeometry width="50" height="50" relative="1" as="geometry">
            <mxPoint x="590" y="180" as="sourcePoint" />
            <mxPoint x="690" y="160" as="targetPoint" />
          </mxGeometry>
        </mxCell>
        <mxCell id="Q5hPIvbTVYmCrmdWsJ5R-11" value="&amp;lt;&amp;lt;extend&amp;gt;&amp;gt;" style="html=1;verticalAlign=bottom;labelBackgroundColor=none;endArrow=open;endFill=0;dashed=1;rounded=0;exitX=0;exitY=0.5;exitDx=0;exitDy=0;entryX=1;entryY=0.5;entryDx=0;entryDy=0;" edge="1" parent="1" source="Q5hPIvbTVYmCrmdWsJ5R-5" target="Q5hPIvbTVYmCrmdWsJ5R-6">
          <mxGeometry width="160" relative="1" as="geometry">
            <mxPoint x="780" y="220" as="sourcePoint" />
            <mxPoint x="940" y="220" as="targetPoint" />
          </mxGeometry>
        </mxCell>
        <mxCell id="Q5hPIvbTVYmCrmdWsJ5R-12" value="&amp;lt;&amp;lt;include&amp;gt;&amp;gt;" style="html=1;verticalAlign=bottom;labelBackgroundColor=none;endArrow=open;endFill=0;dashed=1;rounded=0;exitX=1;exitY=0.5;exitDx=0;exitDy=0;entryX=0;entryY=0.5;entryDx=0;entryDy=0;" edge="1" parent="1" source="Q5hPIvbTVYmCrmdWsJ5R-5" target="Q5hPIvbTVYmCrmdWsJ5R-7">
          <mxGeometry width="160" relative="1" as="geometry">
            <mxPoint x="780" y="220" as="sourcePoint" />
            <mxPoint x="940" y="220" as="targetPoint" />
          </mxGeometry>
        </mxCell>
        <mxCell id="Q5hPIvbTVYmCrmdWsJ5R-14" value="Sistema de venta de entradas" style="text;html=1;align=center;verticalAlign=middle;resizable=0;points=[];autosize=1;strokeColor=none;fillColor=none;" vertex="1" parent="1">
          <mxGeometry x="900" y="70" width="180" height="30" as="geometry" />
        </mxCell>
      </root>
    </mxGraphModel>
  </diagram>
</mxfile>
